<?xml version="1.0" encoding="utf-8"?>
<!-- Generator: Adobe Illustrator 21.0.2, SVG Export Plug-In . SVG Version: 6.00 Build 0)  -->
<svg version="1.2" baseProfile="tiny" id="Ebene_1" xmlns="http://www.w3.org/2000/svg" xmlns:xlink="http://www.w3.org/1999/xlink"
	 x="0px" y="0px" viewBox="0 0 458.8 132.9" xml:space="preserve">
<g id="XMLID_2_">
	<path id="XMLID_4_" d="M27.7,73.6V59.5c0-19.7,13-33.3,32.7-33.3c18.1,0,28.7,10.1,30.9,25.5H76.8c-1.4-7.7-6.4-13.3-16.5-13.3
		c-11.3,0-18.5,8.9-18.5,22.2v11.9c0,13.4,7,22.1,19.3,22.2c12.2,0,17.8-6.3,17.8-15.1l0.1-2.8H62.6V65.5h29.8v11.9
		c0,16.8-10,29.6-32,29.5C40.6,106.9,27.7,93.2,27.7,73.6z"/>
	<path id="XMLID_6_" d="M105.8,28h13.9v77h-13.9V28z"/>
	<path id="XMLID_8_" d="M133,73.6V59.5c0-19.7,13-33.3,32.7-33.3c18.1,0,28.7,10.1,30.9,25.5H182c-1.4-7.7-6.4-13.3-16.5-13.3
		c-11.3,0-18.5,8.9-18.5,22.2v11.9c0,13.4,7,22.1,19.3,22.2c12.2,0,17.8-6.3,17.8-15.1l0.1-2.8h-16.4V65.5h29.8v11.9
		c0,16.8-10,29.6-32,29.5C145.8,106.9,133,93.2,133,73.6z"/>
	<path id="XMLID_10_" d="M253.3,87.6h-30.9l-5.7,17.4h-14.4l27.1-77h17l27.1,77H259L253.3,87.6z M249.6,76.4L237.8,41l-11.7,35.4
		H249.6z"/>
	<path id="XMLID_13_" d="M281.5,28h29.7c14.1,0,23.9,6.9,23.9,19.8c0,8.2-4.9,14.9-12,16.7c10.4,1.7,16.3,7.9,16.3,18
		c0,13.6-10.2,22.4-26.4,22.4h-31.5V28z M308.7,60.2c7.7,0,12.2-4,12.2-10.5c0-6.7-4.5-10.5-12.2-10.5h-13.5v20.9H308.7z
		 M310.2,93.7c9,0,14.4-4,14.4-11.5c0-8-5.4-11.7-14.4-11.7h-15v23.2H310.2z"/>
	<path id="XMLID_17_" d="M350.2,28h13.9v77h-13.9V28z"/>
	<path id="XMLID_19_" d="M395.2,40.7h-22.1V28h58.1v12.6h-22.1V105h-13.9V40.7z"/>
</g>
	<g>
	<polygon points="0,0 0,132.9 0,132.9 0,132.9 350.2,132.9 350.2,119.1 13.9,119.1 13.9,13.9 105.7,13.9 105.7,0 	"/>
		<polygon points="458.7,0.6 458.7,0 119.6,0 119.6,13.9 444.9,13.9 444.9,119.1 364.2,119.1 364.2,132.9 458.7,132.9 458.7,132.9
		458.8,132.9 458.8,0.6 	"/>
</g>
</svg>